<svg viewBox="0 0 1920 1080" xmlns="http://www.w3.org/2000/svg" xml:space="preserve" fill-rule="evenodd" clip-rule="evenodd" stroke-linejoin="round" stroke-miterlimit="2"><path d="M788.199 822.299c0 15.755-.48 26.91-1.44 33.464-.961 6.554-3.967 12.543-9.019 17.966-5.053 5.424-11.88 9.589-20.481 12.495-8.602 2.906-18.623 4.359-30.064 4.359-10.856 0-20.606-1.373-29.249-4.117-8.643-2.744-15.595-6.861-20.856-12.349-5.262-5.489-8.393-11.461-9.395-17.919-1.002-6.457-1.504-17.757-1.504-33.899v-26.83c0-15.755.481-26.909 1.441-33.463.96-6.554 3.967-12.543 9.019-17.967 5.052-5.424 11.879-9.589 20.481-12.495 8.601-2.905 18.623-4.358 30.063-4.358 10.857 0 20.606 1.372 29.25 4.116 8.643 2.744 15.595 6.861 20.856 12.349 5.261 5.489 8.393 11.462 9.395 17.919 1.002 6.457 1.503 17.757 1.503 33.899v26.83Zm-9.644 0v-26.83c0-15.437-.431-26.245-1.389-32.42-.715-4.609-3.072-8.807-6.827-12.724-4.227-4.41-9.868-7.626-16.813-9.831-7.779-2.47-16.56-3.664-26.331-3.664-10.263 0-19.261 1.245-26.977 3.851-6.907 2.334-12.452 5.575-16.51 9.931-3.61 3.876-5.847 8.109-6.534 12.792-.92 6.28-1.338 16.969-1.338 32.065v26.83c0 15.437.43 26.245 1.389 32.42.715 4.609 3.072 8.807 6.827 12.724 4.227 4.41 9.867 7.626 16.813 9.831 7.779 2.47 16.559 3.664 26.33 3.664 10.263 0 19.261-1.244 26.977-3.851 6.908-2.334 12.453-5.575 16.511-9.931 3.61-3.875 5.847-8.109 6.533-12.792.921-6.279 1.339-16.969 1.339-32.065Zm-33.448-51.528v72.061c0 11.175-1.006 18.208-2.219 21.178-2.379 5.825-7.293 9.678-15.818 9.678-8.435 0-13.184-3.753-15.494-8.878-1.189-2.638-2.292-9.543-2.292-20.815v-73.224c0-6.882.574-11.834 1.446-14.881.811-2.834 2.019-4.792 3.177-6.098 3.162-3.563 7.576-5.712 13.539-5.712 7.835 0 12.52 3.399 15.031 8.292 1.378 2.684 2.63 8.77 2.63 18.399Zm-9.644 0c0-7.296-.522-11.962-1.566-13.996-1.044-2.034-3.194-3.051-6.451-3.051-2.756 0-4.865.824-6.326 2.47-1.461 1.647-2.192 6.506-2.192 14.577v73.224c0 9.104.48 14.722 1.44 16.853.961 2.13 3.195 3.196 6.702 3.196 3.591 0 5.888-1.227 6.89-3.681 1.002-2.453 1.503-8.297 1.503-17.531v-72.061Zm530.872-40.292h37.329c24.886 0 41.734.742 50.544 2.228 8.811 1.485 15.992 5.278 21.546 11.38 5.553 6.102 8.33 15.836 8.33 29.202 0 12.204-1.963 20.405-5.888 24.602-3.925 4.197-11.649 6.715-23.174 7.555 10.439 2.001 17.454 4.681 21.045 8.039 3.591 3.357 5.825 6.441 6.702 9.25.876 2.808 1.315 10.541 1.315 23.197v41.357h-48.979v-52.108c0-8.395-.856-13.593-2.568-15.594-1.712-2.002-6.2-3.003-13.466-3.003v70.705h-52.736v-156.81Zm9.644 9.644v137.522h33.448v-61.061c0-5.326 4.318-9.644 9.644-9.644 11.455 0 18.097 3.223 20.796 6.378 2.426 2.838 4.883 9.964 4.883 21.863v42.464h29.69v-31.713c0-11.081-.11-17.864-.877-20.323-.501-1.603-2.034-3.164-4.083-5.08-2.744-2.566-8.297-4.082-16.274-5.612-4.752-.911-8.094-5.203-7.811-10.034.282-4.831 4.101-8.704 8.927-9.056 8.24-.6 14.024-1.522 16.83-4.523 1.025-1.096 1.568-2.815 2.081-4.956.837-3.498 1.207-7.853 1.207-13.059 0-10.319-1.531-18-5.819-22.71-4.118-4.525-9.483-7.261-16.016-8.362-8.53-1.438-24.846-2.094-48.941-2.094h-27.685Zm43.092 7.541c8.771 0 14.68 1.745 17.984 3.974 4.289 2.895 7.695 8.491 7.695 17.777v8.62c0 5.761-.803 10.078-1.993 13.012-1.6 3.941-4.046 6.355-6.712 7.765-3.254 1.722-8.866 3.009-16.974 3.009-5.326 0-9.644-4.318-9.644-9.645v-34.868c0-5.326 4.318-9.644 9.644-9.644Zm0 9.644v34.868c5.93 0 10.084-.629 12.464-1.888 2.38-1.259 3.57-5.344 3.57-12.253v-8.62c0-4.972-1.148-8.233-3.444-9.782-2.297-1.55-6.493-2.325-12.59-2.325Zm-252.846-26.829-30.252 70.802 33.133 86.008h-54.491l-21.357-67.218v67.218h-52.737v-156.81h52.737v60.923l23.487-60.923h49.48Zm-14.609 9.644h-28.253l-21.107 54.748c-1.671 4.335-6.195 6.862-10.763 6.012-4.567-.85-7.879-4.836-7.879-9.481v-51.279h-33.448v137.522h33.448v-57.574c0-4.756 3.466-8.802 8.166-9.53 4.7-.729 9.229 2.077 10.669 6.61l19.221 60.494h33.385l-28.081-72.897c-.903-2.344-.856-4.947.13-7.256l24.512-57.369Zm197.057-9.644v31.381h-35.45v29.735h33.32v29.832h-33.32v34.481h37.955v31.381h-90.692v-28.185h-30.243l-8.589 28.185h-50.356l53.502-156.81h123.873Zm-9.645 9.644h-107.329l-46.921 137.522h29.733l6.506-21.352c1.237-4.059 4.982-6.833 9.226-6.833h30.243c5.327 0 9.644 4.318 9.644 9.644v18.541h71.404v-12.093h-28.311c-5.327 0-9.644-4.318-9.644-9.644v-34.481c0-5.326 4.317-9.644 9.644-9.644h23.676v-10.544h-23.676c-5.327 0-9.644-4.317-9.644-9.644V761.86c0-5.326 4.317-9.644 9.644-9.644h25.805v-12.093Zm-68.898 19.606v71.577c0 5.327-4.317 9.645-9.644 9.645h-22.418c-3.069 0-5.955-1.461-7.772-3.935-1.817-2.473-2.349-5.663-1.432-8.592l22.419-71.577c1.424-4.546 5.953-7.371 10.661-6.651 4.709.72 8.186 4.77 8.186 9.533Zm-9.644 0-22.418 71.577h22.418v-71.577Zm-240.884 18.209h-48.978v-11.622c0-5.424-.627-8.879-1.879-10.364-1.253-1.485-3.341-2.228-6.264-2.228-3.173 0-5.574 1.002-7.202 3.005-1.629 2.003-2.443 5.041-2.443 9.112 0 5.233.915 9.174 2.746 11.824 1.749 2.649 6.716 5.845 14.903 9.587 23.475 10.773 38.261 19.614 44.357 26.523 6.096 6.909 9.144 18.048 9.144 33.416 0 11.171-1.691 19.403-5.073 24.698-3.382 5.295-9.917 9.734-19.604 13.318-9.687 3.584-20.961 5.376-33.821 5.376-14.113 0-26.16-2.067-36.139-6.199-9.98-4.133-16.514-9.395-19.604-15.788-3.09-6.392-4.635-15.465-4.635-27.217v-10.266h48.979v19.08c0 5.876.689 9.654 2.067 11.333 1.377 1.678 3.82 2.518 7.327 2.518 3.508 0 6.118-1.066 7.83-3.196 1.711-2.131 2.567-5.295 2.567-9.492 0-9.234-1.628-15.271-4.885-18.112-3.34-2.842-11.566-7.588-24.677-14.238-13.111-6.716-21.796-11.591-26.055-14.626s-7.787-7.232-10.585-12.591c-2.798-5.359-4.196-12.204-4.196-20.534 0-12.01 1.983-20.791 5.95-26.345 3.966-5.553 10.376-9.895 19.228-13.027 8.852-3.131 19.541-4.697 32.068-4.697 13.695 0 25.366 1.711 35.011 5.133 9.646 3.422 16.034 7.732 19.166 12.93 3.131 5.198 4.697 14.028 4.697 26.491v6.198Zm-9.678-9.644c-.174-8.298-1.045-14.358-3.28-18.068-2.256-3.744-7.181-6.352-14.13-8.818-8.753-3.106-19.357-4.578-31.786-4.578-11.266 0-20.891 1.329-28.852 4.145-6.646 2.352-11.618 5.372-14.597 9.541-3.106 4.349-4.153 11.334-4.153 20.739 0 6.505.917 11.886 3.102 16.071 2.033 3.895 4.537 6.995 7.632 9.2 4.057 2.891 12.353 7.493 24.841 13.889 14.139 7.173 22.939 12.417 26.542 15.482.031.026.062.052.092.079 4.63 4.039 8.19 12.253 8.19 25.38 0 6.925-1.869 12.016-4.694 15.532-3.398 4.23-8.385 6.8-15.348 6.8-7.229 0-11.942-2.584-14.782-6.044-2.149-2.618-4.257-8.288-4.257-17.451v-9.436h-29.69v.622c0 9.923 1.065 17.623 3.674 23.02 2.251 4.656 7.342 8.064 14.611 11.074 8.956 3.709 19.783 5.465 32.449 5.465 11.584 0 21.749-1.548 30.475-4.776 7.188-2.659 12.313-5.535 14.823-9.464 2.659-4.164 3.556-10.722 3.556-19.507 0-12.359-1.829-21.479-6.732-27.035-5.627-6.377-19.478-14.194-41.146-24.138-10.553-4.825-16.587-9.545-18.852-12.923-2.675-3.899-4.42-9.584-4.42-17.254 0-6.852 1.862-11.824 4.603-15.195 3.357-4.129 8.145-6.566 14.686-6.566 6.491 0 10.854 2.356 13.636 5.654 2.033 2.41 4.151 7.779 4.151 16.582v1.978h29.656Zm-344.32-37.815h89.314v31.381H618.34v29.735h32.569v29.832H618.34v65.862h-52.736v-156.81Zm9.644 9.644v137.522h33.448v-56.218c0-5.326 4.318-9.644 9.644-9.644h22.925v-10.544H618.34c-5.326 0-9.644-4.317-9.644-9.644V761.86c0-5.326 4.318-9.644 9.644-9.644h26.933v-12.093h-70.025Zm991.973-9.644v156.81h-46.097l-.063-105.864-18.351 105.864h-32.694l-19.354-103.442-.063 103.442h-46.097v-156.81h68.238c2.024 9.427 4.11 20.539 6.259 33.337l7.489 39.886 12.119-73.223h68.614Zm-9.644 9.644h-50.791l-10.783 65.154c-.764 4.617-4.732 8.019-9.411 8.069-4.679.05-8.719-3.265-9.583-7.864l-7.488-39.887c-.012-.061-.022-.121-.033-.182-1.568-9.339-3.102-17.769-4.602-25.29h-50.74v137.522h26.815l.057-93.804c.003-4.98 3.797-9.139 8.756-9.598 4.959-.458 9.452 2.935 10.368 7.83l17.881 95.572h16.57l16.965-97.867c.855-4.931 5.34-8.389 10.327-7.962 4.986.428 8.817 4.599 8.82 9.604l.057 96.225h26.815V740.123Zm-1152.06-9.644v156.81h-52.736v-156.81h52.736Zm-9.644 9.644h-33.448v137.522h33.448V740.123Zm148.563-9.644v156.81h-46.223l-27.433-71.286v71.286h-44.093v-156.81h44.093l29.563 70.608v-70.608h44.093Zm-9.644 9.644h-24.805v60.964c0 4.594-3.24 8.551-7.745 9.455-4.504.905-9.021-1.493-10.795-5.73l-27.084-64.689h-28.032v137.522h24.805v-61.642c0-4.647 3.314-8.633 7.883-9.482 4.569-.849 9.093 1.681 10.762 6.018l25.055 65.106h29.956V740.123Z" fill="#be3830"/><text x="332.638" y="944.484" font-family="'Calibri-Bold','Calibri',sans-serif" font-weight="700" font-size="292.538" fill="#548a31" transform="matrix(1 0 0 .62264 0 86.6856)">L<tspan x="467.766 678.314 876.148 1030.27 1180.83 1252.68 1418.09" y="944.484 944.484 944.484 944.484 944.484 944.484 944.484">ØGET BY</tspan></text><g fill-rule="nonzero"><path d="M813.625 441.3v-27.64c61.01-9.93 120.28-1.98 170.04 36.72.29.21.51.16.67-.15 25.45-50.76 69.02-88.38 121.31-109.6.35-.14.73.12.73.49v28.24c0 .33-.15.57-.45.7-55.93 25.56-94.26 68.63-111.78 127.57-.09.32-.25.35-.47.1-29.63-34.25-68.46-56.62-114.24-60.68-22.41-1.99-44.35-1.06-65.81 4.25Z" fill="#548a31"/><path d="m965.185 189.59 95.3 93.65c.26.25.39.57.39.94v62.17c0 .45-.19.8-.58 1.03-10.67 6.41-19.12 13.89-28.44 21.95-.32.28-.48.21-.48-.21v-71.59c0-.36-.13-.66-.38-.91l-65.87-65.87c-.2-.21-.54-.21-.75 0l-65.65 65.64c-.23.23-.35.52-.35.85v93.38c0 .28-.22.5-.5.5h-28.37c-.42 0-.63-.21-.63-.63V283.97c0-.34.12-.63.36-.86l95.13-93.52c.23-.23.59-.23.82 0Z" fill="#be3830"/></g></svg>